<?xml version="1.0" encoding="UTF-8"?>
<svg id="Layer_1" data-name="Layer 1" xmlns="http://www.w3.org/2000/svg" viewBox="0 0 510.34162 223.53683">
  <path d="M27.05565,43.99878h65.94775v7.60959c-12.47111,1.05672-17.12081,3.80403-17.12081,13.10498v72.92347c0,17.33262-1.26352,30.89561-2.30901,41.56055-1.25855,12.83826-4.86489,26.35933-13.53119,33.54609-10.35767,8.87812-33.19853,6.69417-40.38529,6.69417-10.77974,0-19.65709-5.49539-19.65709-12.04827,0-6.76391,7.39779-14.1617,12.89318-14.1617,2.1142,0,5.28435,2.95911,10.99155,8.24347,3.38196,2.95911,6.34107,4.22764,8.87734,4.22764,2.1142,0,4.86151-.42284,7.60959-3.38196,4.86151-5.07332,6.55288-11.20335,6.55288-32.5518v-105.05166c0-10.56871-4.86151-12.47111-19.86889-13.10498v-7.60959Z"/>
  <path d="M356.07675,219.56559v-9.89963c16.22317-1.37473,23.92343-2.47491,23.92343-17.0478v-121.54299c0-14.29935-7.42472-15.94962-23.92343-17.0488v-9.89963h79.46957c25.02362,0,40.42215,3.57509,50.59732,9.07399,16.49871,9.07499,24.19798,23.92343,24.19798,40.69769,0,18.14899-6.59908,29.97343-18.14899,39.59851-14.29935,12.09799-36.57252,17.32435-62.14622,17.32435-3.84963,0-7.97381,0-11.82344-.27655v42.07342c0,14.02381,4.67427,15.12399,25.5727,17.0478v9.89963h-87.71893ZM418.22297,137.07202c0,1.64927.27454,2.19836,1.64927,2.74945,1.65027.54909,6.60009.82363,10.17417.82363,25.57371,0,40.42315-12.64908,40.42315-46.74669,0-30.52252-15.39953-39.87206-35.19779-39.87206-7.70027,0-11.5499,1.09918-14.02481,2.74945-2.19936,1.10018-3.024,3.57509-3.024,8.24936v72.04685Z"/>
  <path d="M292.30658,218.46039l-17.79471-19.93861c-9.73126,8.65658-18.57562,17.53578-31.34792,21.80469-13.05046,4.36189-34.39804,3.24352-48.41719,2.54563-2.7897-.13887-6.96683.50043-9.4383.01714-1.17826-.23041-1.59599-1.34074-2.20082-1.43751-1.48387-.23742-4.41251,1.36475-6.14232,1.46982-2.32165.14101-3.48729-1.19253-5.5282-1.19242-2.42091.00013-4.19658,2.12136-6.92173.87543-1.17442-.53694-1.98233-2.818-3.64479-3.05414-1.50762-.21415-6.82107,1.94119-8.88197,2.1899-4.80286.5796-6.91637-1.96348-8.27175-1.95572-1.01142.00579-2.45498,1.64576-5.28176,1.22662-9.34355-1.3854-1.45791-15.32697,2.54865-15.85683,2.19003-.28963,3.75326,1.94795,6.07732.02218,4.44772-3.68548,1.15602-14.24568.79218-19.12463-.52721-7.06967,1.7339-13.86756,1.05722-21.56643-.85171-9.69023-5.60137-15.79715-5.44947-26.10101.14882-10.09495-8.54048-14.80452-6.42575-26.37994.35876-1.96376,3.26748-7.91793,4.7273-9.13221.7156-.59523,1.27733-.4652,1.12864.56844-.39309,2.73272-3.05179,6.51174-3.34502,9.977-.18222,2.15339.31379,4.23954.95784,6.25738,3.93011,12.31326,13.72943,26.12557,18.47682,38.49448,1.27415,1.84409,6.82499,6.44883,8.85019,7.36361,2.24266,1.01301,1.7419-3.60214,1.68629-5.0244-.2398-6.13237-1.82707-12.60232-.4285-18.67566.09023-.39182.86621-2.13454,1.51103-2.08382.45833,6.65569,1.74237,13.56398,1.68917,20.2554-.06874,8.64642-2.92574,15.12035-3.87114,22.73203-.97124,7.81969,2.25134,16.19374-1.12094,23.77006.16898.82186,5.38337,1.18373,5.52624,3.63306-1.86481.6591-3.8085-1.26873-5.24584-1.12514-3.47533.34719-5.35581,10.32769-1.56918,12.14533,1.48085.41993,3.01428-1.12234,4.88345-1.10166,1.63552.01809,2.56659,1.00722,4.38701,1.21227,3.61075.40671,6.43943-1.32204,8.35175-1.21095,1.27025.07379,4.40979,2.63966,5.19223.26021.44625-1.35708-.11308-9.45991-1.10335-10.10128l-6.71255.3865-5.96135-2.11541c4.93665-3.7088,7.38335,3.67705,12.23633.19711-1.08153-4.30549-4.58118-7.43918-6.52055-11.74352-7.2139-16.01084-4.07307-37.76588,7.04427-51.36422,3.74301-4.57832,8.59982-6.77495,10.4875-12.7964,2.40953-7.68607,1.188-14.90317-4.95508-20.19227,7.33788.69802,14.45194,6.90339,17.75229,13.29555l3.30754-1.93562c-3.91781-5.83427-8.54518-11.16345-12.19452-17.18016-5.81687-9.59035-16.269-34.86489-26.0557-38.80585-2.47635-.99719-4.56876-.93644-7.20519-.83949,3.0722-3.06897,7.48065-4.83756,11.04083-7.52574,15.43801-11.65673,19.65268-27.4318,6.94384-43.43166-8.69206-10.94292-30.35593-18.47967-43.01106-11.59976-3.31502,1.8022-5.50874,6.07043-9.31703,6.88193-4.53947.96731-8.7164-1.46403-13.26101-.78299-.51094,6.92764-5.07973,9.60246-11.65252,8.30541-1.74071,3.69776,1.5962,10.49728,4.9651,12.36046,2.46879,1.36537,12.14552,2.5491,15.20328,2.59005,1.90951.02557,6.05258-1.89346,4.34081,1.06682-2.95512.95097-5.63018,1.38498-8.77227,1.09311-1.59361-.14803-6.84573-1.96948-7.79287-1.1695-2.96407,2.50353,1.93285,8.3171,4.22029,9.73257,1.40406.86884,15.56144,5.83105,16.87933,5.89159,3.53394.16234,7.65158-2.01541,10.80456-3.35957.72773,5.08352-2.87765,9.12068-4.27354,13.73719-1.20328,3.97951-.97648,8.86321-2.54455,12.42272-.6301,1.43031-3.3994,5.75362-4.81873,5.16012,2.80917-3.75968,4.84758-7.35481,4.45251-12.22443-.30371-3.74346-2.28409-10.09432-5.04101-12.69328-7.12235-6.71429-19.59336-2.71971-22.57133-15.12766-.31576-1.31564.15478-2.73412-.41518-4.01949-.67799-1.52897-4.11776-3.30798-5.3708-5.16253-2.53541-3.7525-2.63118-15.93085,1.25508-18.92257,2.71633-2.09108,12.54536-1.67244,16.3158-1.41597,2.7871.18959,5.02838,1.78645,8.18851.96577,1.97345-.5125,7.0143-6.21602,10.07351-7.66259,3.98385-1.8838,10.57376-2.43839,15.00416-2.17222,14.05654.84448,32.01358,13.24294,36.1475,27.0539,3.05095,10.19287-1.47827,15.59342-.95559,24.79586.19897,3.50301,1.35887,7.42235,2.24476,10.78389.96262.89642,4.19728-4.89479,4.74071-5.5226,13.54294-15.64596,43.50106-19.38138,59.83453-6.10653,3.34268,2.71673,5.2952,6.55402,8.60062,8.85701-.28259-7.59986,7.0216-10.65747,11.09709-15.79752l4.70361-7.48037c4.84389,8.38685,8.40658,24.93879-2.48554,29.92709-.74784-4.12394,3.26368-6.98968,3.84356-10.84109.62406-4.14482-.36674-8.01284-1.0763-11.8865-1.36796-1.44773-3.90974,4.00109-4.62326,4.80383-1.63261,1.83675-4.71701,3.46669-6.45127,5.46664-6.50678,7.50363-1.17814,16.12435-1.67286,24.65211.96097.25001,1.1081-.39852,1.66416-.82515,2.18107-1.67339,4.2653-4.67959,6.52495-6.35479,11.78974-8.74037,29.06717-7.84649,42.37502-3.18458,1.65193.57869,6.97041,1.96127,5.3326,4.73191-.23165.39188-6.56942,3.70766-7.84612,4.62058-14.07431,10.064-17.04623,23.8266-37.22119,25.42378-5.91425.46821-11.97601-1.67701-17.13043-4.38579-5.68619,6.87648-11.86674,11.90194-19.24981,16.79592-1.83847,1.21865-6.94921,3.24365-7.61223,5.15782-.77522,2.23809.82218,1.67089,1.55476,2.62441,11.62482,15.13073,23.82377,31.17953,36.62742,45.31119.9965,1.09986,2.11226,2.73153,3.57953,2.708,1.00937.03191,1.83522-2.52001,2.20425-3.38317,3.34306-7.81918,6.87045-20.8835,2.72262-28.76078-1.02188-1.94069-4.26014-5.67613-6.60945-3.94558l-.2663-1.093c4.48955-1.49022,8.5871.37396,10.74486,4.49628,3.46274,6.61543,1.46061,15.11301.34777,22.10263,1.48147.30812.95191-.38612,1.37383-1.09394,4.30009-7.21382,3.23905-23.45355-5.04915-27.65969-1.72281-.8743-3.33715-.13397-4.6333-1.45424.02774-.85706,3.91812-1.78035,4.76101-1.87636,1.86929-.21291,4.55339.45687,5.50922.30877,3.10449-.48102-3.43259-4.38947-4.60781-4.65884-1.71086-.39215-3.4807.18966-5.11629-.4226,3.4006-2.66841,9.38167-2.94942,13.6106-2.52664,4.4146.44134,7.71033,3.12287,9.68657,6.94525,6.89242,13.33114-6.27373,29.93913-12.21361,41.57439.30679,1.72334,5.47571-.66769,6.40895-.78829,1.92226-.2484,6.38494-.27412,8.29639-.03134.77116.09795,1.60458.29711.81968,1.10149-2.37099.28499-4.66982,1.13955-6.97076,1.62901-2.51549.5351-4.58209.07887-7.38525,1.48555-1.45811.73171-7.06094,5.51669-6.65363,7.03947.06666.24922,2.74888,3.41759,3.25472,4.00414,3.52126,4.08317,9.51164,10.00776,13.58382,13.58101,10.27308,9.01443,22.48564,11.21573,35.77666,12.73459v7.76051h-49.62301ZM252.89791,60.24688c-8.68978-10.9158-26.14762-8.57455-32.96176,3.26541-5.83729,10.14262-3.07604,21.52453,2.03046,31.25949,1.28666,2.45288,11.2152,17.91429,12.77758,18.32353,17.15167-7.22847,25.47134-22.06944,23.40555-40.64045-.47941-4.30979-2.66851-8.96291-5.25183-12.20798ZM321.96759,71.57285c-15.77464-4.20249-31.20152-5.19002-42.67558,8.04483-1.96384,2.2652-8.63281,11.98348-8.88293,14.45391-.27981,2.76367,2.18651,3.14612,4.3441,3.91206,6.5482,2.32459,13.64809,1.46146,19.97613-1.26921,8.79538-3.79538,12.82291-12.37603,19.92041-18.46516,1.64036-1.4073,5.85089-3.71954,6.75445-4.75462.58858-.67426.70997-1.01203.56341-1.92181ZM221.97998,133.28547c-2.70309-3.12407-4.43921-.96733-7.02555,1.18839-13.57342,11.31352-17.05847,35.52242-10.17712,51.20818.24403.55626,2.58046,5.58266,3.52762,4.50514-.33601-6.98156,1.58081-13.59824,5.10078-19.56782,2.54132-4.30988,7.87798-11.22669,13.19621-11.4684-.05862,2.27149-2.40941,3.40825-3.55488,5.03223-4.37776,6.20655-5.85942,12.05069-4.76701,19.64349.11775.81845-.02298,1.37926.8395,1.91752,2.21646-2.60013,3.18155-6.12396,6.10164-8.3009l-1.386,3.87469,2.76383-1.66006-1.6653,4.98757-2.20752-1.65984c.50499,1.90184-.99432,3.73019-1.07517,5.29985-.22103,4.29105,3.65826,11.27917,6.90763,14.08607,5.99282,5.17676,11.40981,4.55247,18.68918,2.63658,7.73947-2.03698,14.91893-6.88492,20.22963-12.7323l.15108-1.70415c-12.69342-15.89571-26.25479-31.20974-38.79478-47.23331-2.24442-2.86791-4.77599-7.65154-6.85377-10.05292ZM146.32943,218.88461c2.17504,1.68203,2.68132-.22853,3.81159-.65558,3.14397-1.18789,5.55393-1.01956,6.99348-4.64456,2.64102-6.65045.67847-11.78949.14105-18.10529-.84794-9.96505,1.5648-23.28531-.01113-32.69387-.37916-2.26362-5.00783-10.26623-7.42405-10.30711-.50313.25321-.7568,1.43599-.75548,1.93666.01128,4.27154,2.16688,10.17997,2.16675,14.98844-.0001,3.79452-1.76162,8.51611-1.76119,12.19466.00071,6.03207,5.24525,20.45579-1.09854,24.90931-3.10108,2.17705-4.54548.66715-6.88559.86165-2.49055.20701-5.86382,8.17835-4.59716,10.42025.76686,1.3573,4.66425,1.66381,5.96717.38692,1.14015-1.11736.8245-4.38213,2.77644-4.15077l.67665,4.85928Z"/>
  <path d="M307.55182,160.25437l3.31753.83367c-.05223,1.67413-7.81831,2.39431-7.77483-.00249,1.76488-3.07072,4.68595-6.27989,5.95666-9.58695,5.16964-13.45412,5.05164-31.03487-10.79987-36.54228-7.61058-2.6442-19.9209.62947-23.88451,7.96527-.94637,1.75152-2.51782,9.05597.19181,9.0705.47443.00254,2.7935-7.71826,6.37916-6.09769.07703.79642-.76528.48594-1.29644,1.22539-3.74758,5.21715-1.31854,6.57394-2.02774,11.25224-.09829.64839.26997,1.07033-.83705.83035-.4365-.09463-3.70633-1.24571-4.10964-1.43904-6.49152-3.11174-4.7581-12.90607-1.15144-17.69446,7.76644-10.31112,25.8622-12.38871,35.74902-4.14592,10.21706,8.51812,8.68591,25.10689,4.18189,36.30732-1.19128,2.96242-3.17883,5.16268-3.89455,8.02409Z"/>
  <path d="M188.35805,36.64306l1.65028-.00268c1.19394,1.15395-2.27019,8.34042-3.31034,9.71946-1.68959,2.24008-9.86464,6.34044-12.62279,6.77845-6.93778,1.10177-19.64397.88338-21.08233-8.03958-1.20194-7.45626,6.66433-14.68139,8.76892-20.90072,1.62985-4.81641.22124-11.48665,5.24337-14.15905.7839.79136-.64376,1.51097-.82343,2.50276-.64882,3.58161-.3597,7.35517-1.39305,11.35656-1.97149,7.63409-10.65586,17.55246-1.31186,22.9203,10.22412,5.87344,23.38567,2.58438,24.88125-10.1755Z"/>
  <path d="M151.44213,12.0265c.53112.72593,1.75379,1.07725,1.97281,1.88327-4.91121-1.57916-10.24219,2.43089-13.30348-2.75985,2.1848.36532,5.46676-3.59766,6.91845-3.66744,2.60907-.1254,3.14667,2.81427,4.41221,4.54401Z"/>
  <path d="M147.31593,73.78017c-.0533,6.28067-5.92143,12.96634-12.19207,13.85745l7.74699-8.04784,2.77937-5.42429,1.66571-.38532Z"/>
  <path d="M158.41053,133.09201c-.75651-5.85239,1.35333-12.48362,6.64482-15.51819-.02684,3.11743-2.23101,5.6017-3.42051,8.49251-.29645.72045-2.00764,8.42813-3.22431,7.02568Z"/>
  <path d="M142.88026,94.84939c1.0076,1.00569-4.70846,7.46935-5.5324,8.5984-.94926,1.30078-1.3057,4.07838-3.3329,4.1455-1.4991-1.76644,5.14851-13.34092,8.8653-12.74391Z"/>
  <path d="M310.24435,165.87654l.08324,1.58341-10.5331-.55441c-.2404-1.26655.07824-.88464.70719-1.23616,2.81-1.5705,6.9746-1.31801,9.74267.20716Z"/>
  <path d="M282.04661,56.04698l-6.09045,11.08083c-.78295-1.87724,3.93909-13.04941,6.09045-11.08083Z"/>
  <path d="M190.48031,26.19281l.63581,2.68759-2.21315-.54756c.62406.99707,2.41286,4.73285.00517,4.43053l-2.77539-6.64981,4.34757.07925Z"/>
  <path d="M201.09704,112.5822c-1.11178-.45698-7.71686-4.25676-7.74827-4.70895-.13478-1.94039,6.43563.94415,7.23588,2.17781.54775.8444.61339,1.55731.51238,2.53113Z"/>
  <path d="M161.73992,140.85525c.82087-3.92185-.56841-9.1099,3.31544-11.64064-.43187,3.24781-1.18978,6.60686-2.19719,9.71553-.23576.72752-.00835,1.72709-1.11825,1.92512Z"/>
  <path d="M137.33871,93.17803l5.53878-4.98326c.43292,3.58342-2.43143,4.75669-5.53878,4.98326Z"/>
  <path d="M293.69263,79.88547c-4.46106,5.19665-10.78912,8.29439-16.62789,11.63496-.6602-.73046,4.35788-5.68829,5.13388-6.26074,3.25141-2.39851,7.36783-5.01202,11.49402-5.37423Z"/>
  <path d="M309.21442,74.8966c-.1806.63024-2.68639,1.43905-3.17821,1.52592-1.3425.23714-2.67837.14561-4.02403.12578,1.57129-2.35718,4.79082-1.56665,7.20224-1.6517Z"/>
</svg>